<svg class="border shadow-md" viewBox="0 0 631.84 355.41" style="width: 631.84px; height: 355.41px;" xmlns="http://www.w3.org/2000/svg" preserveAspectRatio="none"><rect class="bg" id="bg" x="0" y="0" width="631.84" height="355.41" fill="#ffffff"/><circle cx="5" cy="5" r="5" stroke="none" stroke-width="10" fill="#9a2c2e" transform=" rotate(52 50 50) scale(15)"/><path d="M9.5,7.5Q7,9,4.5,9Q2,9,1.5,6Q1,3,4.5,2Q8,1,10,3.5Q12,6,9.5,7.5Z" stroke="#347a59" fill="none" transform=" rotate(355 50 50) scale(11.847000000000001)"/><rect x="0" y="0" width="10" height="6" fill="#e46e22" stroke="none" stroke-width="10" rx="1" transform="translate(250.92000000000002, 290.41) rotate(91 50 50) scale(13)"/><path d="M7.5,7.5Q7,9,5,8.5Q3,8,2.5,5.5Q2,3,5,2Q8,1,8,3.5Q8,6,7.5,7.5Z" stroke="none" fill="#e80b32" transform=" rotate(31 50 50) scale(15)"/><circle cx="5" cy="5" r="5" stroke="#265255" stroke-width="16" fill="none" transform="translate(572.605, 118.47) rotate(345 50 50) scale(11.847000000000001)"/><circle cx="5" cy="5" r="5" stroke="none" stroke-width="10" fill="#2c7f71" transform="translate(546.84, 270.41) rotate(11 50 50) scale(17)"/><circle cx="5" cy="5" r="5" stroke="none" stroke-width="10" fill="#dce1eb" transform=" rotate(81 50 50) scale(15)"/><circle cx="5" cy="5" r="5" stroke="none" stroke-width="10" fill="#53e81f" transform=" rotate(128 50 50) scale(14)"/></svg>